<?xml version="1.0" encoding="UTF-8"?>
<svg width="2442px" height="354px" viewBox="0 0 2442 354" version="1.1" xmlns="http://www.w3.org/2000/svg" xmlns:xlink="http://www.w3.org/1999/xlink">
    <title>Combined Shape</title>
    <g id="Page-1" stroke="none" stroke-width="1" fill="none" fill-rule="evenodd">
        <path d="M518.291464,122.709036 C571.240153,175.657595 571.232205,261.350882 518.291464,314.290964 C465.343304,367.240584 379.648748,367.232106 326.708536,314.290964 C273.759847,261.342934 273.767795,175.649647 326.708536,122.709036 C379.656696,69.759416 465.351252,69.7678938 518.291464,122.709036 Z M138.748,87.212 C162.854667,87.212 185.078,92.4853333 205.418,103.032 C225.758,113.578667 241.653333,128.344 253.104,147.328 L253.104,147.328 L223.724,165.86 L223.062046,165.005494 C201.150442,136.948498 172.59376,122.92 137.392,122.92 C109.368,122.92 85.864,131.884667 66.88,149.814 C47.896,167.743333 38.404,189.966667 38.404,216.484 C38.404,243.001333 47.7453333,265.752 66.428,284.736 C85.1106667,303.72 108.765333,313.212 137.392,313.212 C171.744,313.212 200.672,298.748 224.176,269.82 L224.176,269.82 L253.104,289.708 L252.538122,290.530543 C239.654524,309.110297 222.89315,323.300116 202.254,333.1 C181.311333,343.044 158.636,348.016 134.228,348.016 C96.26,348.016 64.5446667,335.510667 39.082,310.5 C13.6193333,285.489333 0.888,254.904 0.888,218.744 C0.888,182.584 13.6946667,151.622 39.308,125.858 C64.9213333,100.094 98.068,87.212 138.748,87.212 Z M891.78,93.54 L969.976,271.628 L1048.172,93.54 L1087.496,93.54 L974.948,348.016 L965.908,348.016 L852.456,93.54 L891.78,93.54 Z M1242.08,87.212 C1277.93867,87.212 1307.92133,99.3406667 1332.028,123.598 C1356.13467,147.855333 1368.64,181.077333 1369.544,223.264 L1369.544,223.264 L1153.488,223.264 L1153.53811,224.118643 C1155.18741,250.841751 1164.28604,272.328204 1180.834,288.578 C1197.558,305.000667 1217.52133,313.212 1240.724,313.212 C1280.19867,313.212 1310.332,293.776 1331.124,254.904 L1331.124,254.904 L1362.764,271.176 L1362.23829,272.143828 C1348.188,297.868996 1331.63924,316.907053 1312.592,329.258 C1293.30667,341.763333 1270.25467,348.016 1243.436,348.016 C1206.372,348.016 1175.78667,335.284667 1151.68,309.822 C1127.57333,284.359333 1115.52,253.698667 1115.52,217.84 C1115.52,181.981333 1127.64867,151.245333 1151.906,125.632 C1176.16333,100.018667 1206.22133,87.212 1242.08,87.212 Z M1621.308,0.88 L1621.308,93.54 L1670.124,93.54 L1670.124,126.084 L1621.308,126.084 L1621.308,298.748 L1621.30954,299.195772 C1621.35156,305.257543 1622.25505,308.950286 1624.02,310.274 C1625.828,311.63 1630.348,312.308 1637.58,312.308 L1637.58,312.308 L1659.276,312.308 L1659.276,344.4 L1658.44538,344.53774 C1644.39026,346.85658 1633.66846,348.016 1626.28,348.016 C1611.816,348.016 1601.11867,344.475333 1594.188,337.394 C1587.25733,330.312667 1583.792,319.088 1583.792,303.72 L1583.792,303.72 L1583.792,126.084 L1541.304,126.084 L1541.304,93.54 L1583.792,93.54 L1583.792,0.88 L1621.308,0.88 Z M1839.172,0.88 L1839.172,129.7 L1839.94194,128.854489 C1865.40057,101.09283 1895.87992,87.212 1931.38,87.212 C1967.23867,87.212 1997.44733,99.9433333 2022.006,125.406 C2046.56467,150.868667 2058.844,181.529333 2058.844,217.388 C2058.844,253.246667 2046.33867,283.982667 2021.328,309.596 C1996.31733,335.209333 1966.10867,348.016 1930.702,348.016 C1895.29533,348.016 1864.78533,332.648 1839.172,301.912 L1839.172,301.912 L1839.172,339.88 L1802.56,339.88 L1802.56,0.88 L1839.172,0.88 Z M2314.224,87.212 C2350.08267,87.212 2380.06533,99.3406667 2404.172,123.598 C2428.27867,147.855333 2440.784,181.077333 2441.688,223.264 L2441.688,223.264 L2225.632,223.264 L2225.68211,224.118643 C2227.33141,250.841751 2236.43004,272.328204 2252.978,288.578 C2269.702,305.000667 2289.66533,313.212 2312.868,313.212 C2352.34267,313.212 2382.476,293.776 2403.268,254.904 L2403.268,254.904 L2434.908,271.176 L2434.38229,272.143828 C2420.332,297.868996 2403.78324,316.907053 2384.736,329.258 C2365.45067,341.763333 2342.39867,348.016 2315.58,348.016 C2278.516,348.016 2247.93067,335.284667 2223.824,309.822 C2199.71733,284.359333 2187.664,253.698667 2187.664,217.84 C2187.664,181.981333 2199.79267,151.245333 2224.05,125.632 C2248.30733,100.018667 2278.36533,87.212 2314.224,87.212 Z M724.992,87.212 C742.770667,87.212 758.892,91.8073333 773.356,100.998 C787.82,110.188667 798.668,122.844667 805.9,138.966 C813.132,155.087333 816.748,179.872 816.748,213.32 L816.748,213.32 L816.748,339.88 L779.684,339.88 L779.684,222.36 L779.683536,221.469073 C779.655699,194.835405 778.375187,176.675714 775.842,166.99 C773.280667,157.196667 769.514,148.91 764.542,142.13 C759.57,135.35 753.242,130.302667 745.558,126.988 C737.874,123.673333 728.532667,122.016 717.534,122.016 C706.535333,122.016 695.762667,124.728 685.216,130.152 C674.669333,135.576 665.629333,143.109333 658.096,152.752 C650.562667,162.394667 645.364667,172.64 642.502,183.488 C639.66796,194.22752 638.23677,215.599165 638.208429,247.602934 L638.208429,247.602934 L638.208,339.88 L600.692,339.88 L600.692,93.54 L638.208,93.54 L638.208,130.604 L638.941596,129.740499 C663.195012,101.388166 691.87848,87.212 724.992,87.212 Z M1491.358,87.212 C1501.15133,87.212 1512.22533,90.5266667 1524.58,97.156 L1524.58,97.156 L1505.144,128.796 L1504.59572,128.510617 C1499.66638,125.988872 1494.87714,124.728 1490.228,124.728 C1480.88667,124.728 1472.44933,129.323333 1464.916,138.514 C1457.38267,147.704667 1451.73267,159.758 1447.966,174.674 C1444.237,189.44084 1442.35386,215.947318 1442.31657,254.193433 L1442.31657,254.193433 L1442.316,339.88 L1404.348,339.88 L1404.348,93.54 L1442.316,93.54 L1442.316,120.208 L1442.82975,119.452254 C1450.19522,108.683479 1457.63264,100.648727 1465.142,95.348 C1472.826,89.924 1481.56467,87.212 1491.358,87.212 Z M1742.896,93.54 L1742.896,339.88 L1705.38,339.88 L1705.38,93.54 L1742.896,93.54 Z M2141.108,0.88 L2141.108,339.88 L2104.044,339.88 L2104.044,0.88 L2141.108,0.88 Z M422.499735,105.284886 C360.07329,105.284886 309.284344,156.073177 309.284344,218.5 C309.284344,280.926823 360.07276,331.715114 422.499735,331.715114 C484.92671,331.715114 535.715126,280.926823 535.715126,218.5 C535.715126,156.073177 484.92618,105.284886 422.499735,105.284886 Z M1929.572,121.564 C1903.356,121.564 1881.434,130.453333 1863.806,148.232 C1846.178,166.010667 1837.364,188.384667 1837.364,215.354 C1837.364,242.323333 1846.25333,265.149333 1864.032,283.832 C1881.81067,302.514667 1903.50667,311.856 1929.12,311.856 C1954.73333,311.856 1976.50467,302.364 1994.434,283.38 C2012.36333,264.396 2021.328,242.172667 2021.328,216.71 C2021.328,191.247333 2012.58933,169.024 1995.112,150.04 C1977.63467,131.056 1955.788,121.564 1929.572,121.564 Z M470.821997,227.249449 C476.878458,233.297806 480.966185,237.313098 483.763623,240.105779 L484.495079,240.837715 C488.542329,244.898578 489.538921,246.106628 490.139355,247.632873 L490.207029,247.810571 C490.317392,248.109689 490.41688,248.425084 490.524371,248.77931 C491.577069,252.256589 490.831717,255.893415 488.788743,258.627374 C488.704967,258.739205 488.651112,258.817106 488.595034,258.89373 L488.545674,258.959857 C488.36576,259.19554 488.083194,259.503705 486.830126,260.766018 L486.595865,261.001758 C486.43257,261.165928 486.254788,261.344364 486.061056,261.538553 L484.286113,263.313602 C484.215454,263.384165 484.143569,263.455946 484.070436,263.528968 L483.616469,263.982164 C483.440476,264.157834 483.25793,264.340017 483.068571,264.52898 L482.680692,264.916022 C480.628915,266.963252 477.831094,269.753173 473.999689,273.577902 L473.245144,274.331172 C472.477537,275.097521 471.670516,275.903341 470.821997,276.750749 C466.483719,281.083348 459.449688,281.082819 455.111939,276.750749 C451.214842,272.858754 450.830792,266.800195 453.934928,262.46654 C442.575315,260.915975 431.638897,256.490924 422.444456,249.603989 C417.535923,245.928068 416.541414,238.974039 420.222153,234.07246 C423.90395,229.170881 430.866566,228.176618 435.774571,231.853595 C440.853969,235.657892 446.72633,238.339549 452.895984,239.752227 C450.99531,235.649967 451.725321,230.631634 455.111939,227.249449 C459.450217,222.91685 466.483719,222.91685 470.821997,227.249449 Z M470.737276,160.258058 C476.671929,166.174035 480.806927,170.183021 483.709042,173.074987 L484.22324,173.588666 C489.649274,179.023988 490.425349,180.311347 490.882635,183.487566 C491.291249,186.328353 490.615362,189.035655 489.128624,191.252453 C489.111355,191.278176 489.094791,191.302976 489.078765,191.327027 L489.032129,191.39711 C488.65726,191.960579 488.508776,192.170663 486.015124,194.672193 L485.465382,195.222822 C485.351268,195.336969 485.233051,195.45514 485.110561,195.57751 L484.730104,195.957387 C482.171624,198.510711 477.924291,202.726434 470.736745,209.891572 C468.558179,212.063346 465.702664,213.149233 462.846617,213.149233 C454.707282,213.149233 449.302844,204.728577 452.732757,197.350371 C442.52733,199.689646 433.267445,205.50263 426.788177,213.881414 L426.43109,214.349536 L409.427649,236.950289 C396.684632,253.887478 376.39687,264 355.158508,264 C348.995824,264 344,259.019751 344,252.876279 C344,246.732807 348.995824,241.752558 355.158508,241.752558 C369.227337,241.752558 382.674264,235.139443 391.24319,224.036156 L391.574566,223.601294 L408.578008,201.000541 C419.489966,186.497327 435.93442,177.005085 453.769967,174.574287 C450.656743,170.22915 451.044103,164.158777 454.95702,160.258058 C459.314683,155.913981 466.379613,155.913981 470.737276,160.258058 Z M354.09243,174 C368.588123,174 382.958102,178.724706 394.555501,187.304519 C403.082939,193.612116 398.506519,207 387.891592,207 C385.575915,207 383.240695,206.287751 381.245114,204.81115 C373.462982,199.053761 363.819963,195.883289 354.092958,195.883289 C347.966768,195.883289 343,190.984559 343,184.941645 C343,178.898731 347.966239,174 354.09243,174 Z M1242.08,123.372 C1199.89333,123.372 1171.86933,145.670667 1158.008,190.268 L1158.008,190.268 L1327.96,190.268 C1323.44,169.174667 1313.19467,152.752 1297.224,141 C1281.25333,129.248 1262.872,123.372 1242.08,123.372 Z M2314.224,123.372 C2272.03733,123.372 2244.01333,145.670667 2230.152,190.268 L2230.152,190.268 L2400.104,190.268 C2395.584,169.174667 2385.33867,152.752 2369.368,141 C2353.39733,129.248 2335.016,123.372 2314.224,123.372 Z M1723.912,0.88 C1732.048,0.88 1738.90333,3.66733333 1744.478,9.242 C1750.05267,14.8166667 1752.84,21.5966667 1752.84,29.582 C1752.84,37.5673333 1750.05267,44.3473333 1744.478,49.922 C1738.90333,55.4966667 1732.12333,58.284 1724.138,58.284 C1716.15267,58.284 1709.37267,55.4213333 1703.798,49.696 C1698.22333,43.9706667 1695.436,37.266 1695.436,29.582 C1695.436,21.898 1698.22333,15.1933333 1703.798,9.468 C1709.37267,3.74266667 1716.07733,0.88 1723.912,0.88 Z" id="Combined-Shape" fill="#E2E8F0" fill-rule="nonzero"></path>
    </g>
</svg>