<?xml version="1.0" encoding="UTF-8"?>
<svg width="1669px" height="226px" viewBox="0 0 1669 226" version="1.1" xmlns="http://www.w3.org/2000/svg" xmlns:xlink="http://www.w3.org/1999/xlink">
    <title>Group 5</title>
    <g id="Page-1" stroke="none" stroke-width="1" fill="none" fill-rule="evenodd">
        <g id="Group-5">
            <rect id="Rectangle" fill="#27272A" x="0" y="0" width="1669" height="226"></rect>
            <path d="M164.087598,101.912502 C174.638259,112.463137 174.636675,129.538552 164.087598,140.087498 C153.537042,150.638345 136.461374,150.636656 125.912402,140.087498 C115.361741,129.536968 115.363325,112.461553 125.912402,101.912502 C136.462958,91.3616548 153.538626,91.3633442 164.087598,101.912502 Z M238.66,96.4179688 L254.165926,131.816406 L269.671852,96.4179688 L277.46963,96.4179688 L255.151852,147 L253.359259,147 L230.862222,96.4179688 L238.66,96.4179688 Z M383.322222,78 L383.322222,96.4179688 L393.002222,96.4179688 L393.002222,102.886719 L383.322222,102.886719 L383.322222,137.207031 L383.324612,137.452005 C383.34692,138.56447 383.525383,139.246484 383.86,139.498047 C384.218519,139.767578 385.114815,139.902344 386.548889,139.902344 L386.548889,139.902344 L390.851111,139.902344 L390.851111,146.28125 L390.379449,146.358893 C387.742752,146.786298 385.718985,147 384.308148,147 C381.44,147 379.318765,146.296224 377.944444,144.888672 C376.570123,143.48112 375.882963,141.25 375.882963,138.195313 L375.882963,138.195313 L375.882963,102.886719 L367.457778,102.886719 L367.457778,96.4179688 L375.882963,96.4179688 L375.882963,78 L383.322222,78 Z M426.523704,78 L426.523704,103.605469 L426.856384,103.242272 C431.868188,97.854195 437.85211,95.1601562 444.808148,95.1601562 C451.918765,95.1601562 457.909012,97.6907552 462.778889,102.751953 C467.648765,107.813151 470.083704,113.907552 470.083704,121.035156 C470.083704,128.16276 467.603951,134.272135 462.644444,139.363281 C457.684938,144.454427 451.694691,147 444.673704,147 C437.652716,147 431.602716,143.945313 426.523704,137.835938 L426.523704,137.835938 L426.523704,145.382813 L419.263704,145.382813 L419.263704,78 L426.523704,78 Z M89.337037,95.1601562 C94.117284,95.1601562 98.5240741,96.2083333 102.557407,98.3046875 C106.590741,100.401042 109.742716,103.335937 112.013333,107.109375 L112.013333,107.109375 L106.187407,110.792969 L105.907158,110.433634 C101.581997,104.983086 95.968994,102.257812 89.0681481,102.257812 C83.5111111,102.257812 78.8503704,104.039714 75.0859259,107.603516 C71.3214815,111.167318 69.4392593,115.584635 69.4392593,120.855469 C69.4392593,126.126302 71.2916049,130.648437 74.9962963,134.421875 C78.7009877,138.195312 83.3916049,140.082031 89.0681481,140.082031 C95.88,140.082031 101.616296,137.207031 106.277037,131.457031 L106.277037,131.457031 L112.013333,135.410156 L111.701207,135.858656 C109.173795,139.412156 105.916726,142.137656 101.93,144.035156 C97.7771605,146.011719 93.2807407,147 88.4407407,147 C80.9118519,147 74.6228395,144.514323 69.5737037,139.542969 C64.5245679,134.571615 62,128.492187 62,121.304687 C62,114.117187 64.5395062,107.962891 69.6185185,102.841797 C74.6975309,97.7207031 81.2703704,95.1601562 89.337037,95.1601562 Z M308.122963,95.1601562 C315.23358,95.1601562 321.179012,97.5709635 325.959259,102.392578 C330.739506,107.214193 333.219259,113.817708 333.398519,122.203125 L333.398519,122.203125 L290.555556,122.203125 L290.587985,122.705381 C290.968765,127.863179 292.765486,132.023234 295.978148,135.185547 C299.294444,138.44987 303.253086,140.082031 307.854074,140.082031 C315.681728,140.082031 321.657037,136.21875 325.78,128.492188 L325.78,128.492188 L332.054074,131.726562 L331.751231,132.279663 C329.008153,137.210641 325.792804,140.874581 322.105185,143.271484 C318.280988,145.757161 313.709877,147 308.391852,147 C301.042222,147 294.977284,144.469401 290.197037,139.408203 C285.41679,134.347005 283.026667,128.252604 283.026667,121.125 C283.026667,113.997396 285.431728,107.888021 290.241852,102.796875 C295.051975,97.7057292 301.012346,95.1601562 308.122963,95.1601562 Z M520.724444,95.1601562 C527.835062,95.1601562 533.780494,97.5709635 538.560741,102.392578 C543.340988,107.214193 545.820741,113.817708 546,122.203125 L546,122.203125 L503.157037,122.203125 L503.189467,122.705381 C503.570247,127.863179 505.366968,132.023234 508.57963,135.185547 C511.895926,138.44987 515.854568,140.082031 520.455556,140.082031 C528.28321,140.082031 534.258519,136.21875 538.381481,128.492188 L538.381481,128.492188 L544.655556,131.726562 L544.352713,132.279663 C541.609634,137.210641 538.394286,140.874581 534.706667,143.271484 C530.882469,145.757161 526.311358,147 520.993333,147 C513.643704,147 507.578765,144.469401 502.798519,139.408203 C498.018272,134.347005 495.628148,128.252604 495.628148,121.125 C495.628148,113.997396 498.03321,107.888021 502.843333,102.796875 C507.653457,97.7057292 513.613827,95.1601562 520.724444,95.1601562 Z M205.586667,95.1601562 C209.112099,95.1601562 212.308889,96.0735677 215.177037,97.9003906 C218.045185,99.7272135 220.196296,102.242839 221.63037,105.447266 C223.064444,108.651693 223.781481,113.578125 223.781481,120.226562 L223.781481,120.226562 L223.781481,145.382812 L216.431852,145.382812 L216.431059,121.50714 C216.415204,116.397919 216.161517,112.901399 215.67,111.017578 C215.162099,109.070964 214.415185,107.423828 213.429259,106.076172 C212.443333,104.728516 211.188519,103.72526 209.664815,103.066406 C208.141111,102.407552 206.288765,102.078125 204.107778,102.078125 C201.92679,102.078125 199.790617,102.617187 197.699259,103.695312 C195.607901,104.773437 193.815309,106.270833 192.321481,108.1875 C190.827654,110.104167 189.796914,112.140625 189.229259,114.296875 C188.667281,116.431562 188.383483,120.679591 188.377863,127.040959 L188.377863,127.040959 L188.377778,145.382812 L180.938519,145.382812 L180.938519,96.4179687 L188.377778,96.4179687 L188.377778,103.785156 L188.694701,103.414232 C193.467606,97.9115149 199.098261,95.1601562 205.586667,95.1601562 Z M357.553704,95.1601562 C359.495679,95.1601562 361.691605,95.8190104 364.141481,97.1367187 L364.141481,97.1367187 L360.287407,103.425781 L359.983563,103.272148 C359.074719,102.835508 358.190074,102.617187 357.32963,102.617187 C355.477284,102.617187 353.804198,103.530599 352.31037,105.357422 C350.816543,107.184245 349.696173,109.580078 348.949259,112.544922 C348.209815,115.480117 347.836395,120.748793 347.829001,128.350949 L347.829001,128.350949 L347.828889,145.382812 L340.3,145.382812 L340.3,96.4179687 L347.828889,96.4179687 L347.828889,101.71875 L348.109157,101.309891 C349.51137,99.2989349 350.926713,97.7880859 352.355185,96.7773437 C353.878889,95.6992187 355.611728,95.1601562 357.553704,95.1601562 Z M407.432593,96.4179688 L407.432593,145.382813 L399.993333,145.382813 L399.993333,96.4179688 L407.432593,96.4179688 Z M486.396296,78 L486.396296,145.382813 L479.046667,145.382813 L479.046667,78 L486.396296,78 Z M144.999947,98.4405307 C132.560729,98.4405307 122.440423,108.560707 122.440423,121 C122.440423,133.439293 132.560624,143.559469 144.999947,143.559469 C157.439271,143.559469 167.559472,133.439293 167.559472,121 C167.559472,108.560707 157.439165,98.4405307 144.999947,98.4405307 Z M444.44963,101.988281 C439.251111,101.988281 434.904074,103.755208 431.408519,107.289062 C427.912963,110.822917 426.165185,115.270182 426.165185,120.630859 C426.165185,125.991536 427.927901,130.528646 431.453333,134.242188 C434.978765,137.955729 439.280988,139.8125 444.36,139.8125 C449.439012,139.8125 453.756173,137.925781 457.311481,134.152344 C460.86679,130.378906 462.644444,125.961589 462.644444,120.900391 C462.644444,115.839193 460.911605,111.421875 457.445926,107.648437 C453.980247,103.875 449.648148,101.988281 444.44963,101.988281 Z M154.628737,122.743433 C157.828645,125.939059 158.270519,126.286527 158.474479,126.796319 L158.50227,126.870575 L158.528457,126.948991 C158.537099,126.976039 158.545747,127.004106 158.554672,127.033516 C158.764434,127.726405 158.615914,128.451086 158.208827,128.995861 C158.191629,129.018818 158.180759,129.034599 158.169214,129.050319 L158.157184,129.066282 C158.125249,129.107456 158.074504,129.163071 157.895522,129.344291 L157.77187,129.468985 C157.724939,129.516167 157.672004,129.569262 157.612188,129.629161 L157.334156,129.907144 C157.234507,130.00667 157.122285,130.118678 156.995778,130.244905 L156.508125,130.731398 L156.442824,130.79654 L156.442824,130.79654 L156.089513,131.14902 C156.039346,131.199074 155.987927,131.250377 155.935226,131.302964 L155.603358,131.63414 L155.515397,131.72193 L155.515397,131.72193 L154.841006,132.395185 L154.628737,132.60716 C153.764283,133.470483 152.362669,133.470377 151.49832,132.60716 C150.721777,131.831634 150.64525,130.624393 151.263786,129.76086 C149.000247,129.451892 146.821035,128.570147 144.988932,127.197843 C144.010848,126.465372 143.81268,125.079698 144.546112,124.102999 C145.279754,123.126301 146.667139,122.928182 147.645117,123.660864 C148.657249,124.418916 149.827387,124.953268 151.056764,125.234761 C150.678032,124.417337 150.823496,123.417374 151.49832,122.743433 C152.362774,121.88011 153.764283,121.88011 154.628737,122.743433 Z M154.611856,109.394595 C158.195343,112.966804 158.485876,113.049661 158.62606,114.023353 C158.707481,114.589413 158.572803,115.128876 158.276552,115.5706 C158.26967,115.58085 158.263351,115.590366 158.257325,115.599424 L158.239858,115.625499 L158.213431,115.663088 L158.213431,115.663088 L158.193306,115.689552 C158.142441,115.754227 158.059823,115.843899 157.853176,116.053474 L157.756751,116.150909 L157.683233,116.224843 L157.683233,116.224843 L157.276359,116.631522 C157.247485,116.660304 157.217674,116.69001 157.186895,116.720673 L156.990322,116.91642 C156.766672,117.139055 156.500194,117.404122 156.181953,117.720812 L155.846128,118.055049 C155.492387,118.407174 155.083905,118.813984 154.61175,119.284668 C154.177645,119.71742 153.608649,119.933796 153.039547,119.933796 C151.417687,119.933796 150.340788,118.255879 151.024239,116.785683 C149.062039,117.235456 147.275258,118.329686 145.992404,119.905843 L145.783317,120.17297 L142.395177,124.676441 C139.855978,128.051379 135.813398,130.066421 131.5814,130.066421 C130.353411,130.066421 129.357934,129.074046 129.357934,127.849886 C129.357934,126.625725 130.353411,125.633351 131.5814,125.633351 C134.31977,125.633351 136.939898,124.37602 138.651354,122.255625 L138.837736,122.016494 L142.225876,117.513023 C144.400215,114.623084 147.676969,112.731641 151.230916,112.247275 C150.610569,111.381454 150.687755,110.17186 151.46745,109.394595 C152.335767,108.528985 153.743539,108.528985 154.611856,109.394595 Z M131.368971,112.132841 C134.257412,112.132841 137.120803,113.074296 139.431723,114.783926 C141.130918,116.040791 140.219011,118.708487 138.10386,118.708487 C137.642433,118.708487 137.177113,118.566563 136.779469,118.272332 C135.228786,117.125104 133.307299,116.493349 131.369077,116.493349 C130.14836,116.493349 129.158672,115.517218 129.158672,114.313095 C129.158672,113.108972 130.148254,112.132841 131.368971,112.132841 Z M308.122963,102.347656 C299.757531,102.347656 294.200494,106.779948 291.451852,115.644531 L291.451852,115.644531 L325.152593,115.644531 C324.256296,111.451823 322.224691,108.1875 319.057778,105.851562 C315.890864,103.515625 312.245926,102.347656 308.122963,102.347656 Z M520.724444,102.347656 C512.359012,102.347656 506.801975,106.779948 504.053333,115.644531 L504.053333,115.644531 L537.754074,115.644531 C536.857778,111.451823 534.826173,108.1875 531.659259,105.851562 C528.492346,103.515625 524.847407,102.347656 520.724444,102.347656 Z M403.668148,78 C405.281481,78 406.640864,78.5540365 407.746296,79.6621094 C408.851728,80.7701823 409.404444,82.1178385 409.404444,83.7050781 C409.404444,85.2923177 408.851728,86.639974 407.746296,87.7480469 C406.640864,88.8561198 405.29642,89.4101562 403.712963,89.4101562 C402.129506,89.4101562 400.785062,88.8411458 399.67963,87.703125 C398.574198,86.5651042 398.021481,85.2324219 398.021481,83.7050781 C398.021481,82.1777344 398.574198,80.8450521 399.67963,79.7070312 C400.785062,78.5690104 402.114568,78 403.668148,78 Z" id="Combined-Shape" fill="#F97316" fill-rule="nonzero"></path>
            <path d="M1274.11328,126 L1276.9082,118.265625 L1287.12109,118.265625 L1289.74023,126 L1293.57227,126 L1284.20312,100.177734 L1280.24805,100.177734 L1270.52734,126 L1274.11328,126 Z M1285.99609,115.417969 L1277.91016,115.417969 L1282.07617,104.009766 L1285.99609,115.417969 Z M1302.53711,126.509766 C1304.25977,126.509766 1305.72461,126.017578 1306.93164,125.033203 C1307.54102,124.541016 1308.05078,123.9375 1308.46094,123.222656 L1308.46094,123.222656 L1308.42578,126 L1311.41406,126 L1311.41406,107.173828 L1308.25,107.173828 L1308.25,116.419922 C1308.25,118.259766 1308.0332,119.707031 1307.59961,120.761719 C1306.80273,122.730469 1305.30273,123.714844 1303.09961,123.714844 C1301.56445,123.714844 1300.51562,123.152344 1299.95312,122.027344 C1299.64844,121.417969 1299.49609,120.632812 1299.49609,119.671875 L1299.49609,119.671875 L1299.49609,107.173828 L1296.26172,107.173828 L1296.26172,119.970703 C1296.26172,121.576172 1296.52539,122.859375 1297.05273,123.820312 C1298.02539,125.613281 1299.85352,126.509766 1302.53711,126.509766 Z M1322.76953,126.667969 C1324.07031,126.667969 1325.22461,126.410156 1326.23242,125.894531 C1327.24023,125.378906 1328.11328,124.541016 1328.85156,123.380859 L1328.85156,123.380859 L1328.85156,126 L1331.69922,126 L1331.69922,100.089844 L1328.6582,100.089844 L1328.6582,109.599609 C1327.94336,108.720703 1327.30469,108.105469 1326.74219,107.753906 C1325.76953,107.144531 1324.5625,106.839844 1323.12109,106.839844 C1320.51953,106.839844 1318.51855,107.844727 1317.11816,109.854492 C1315.71777,111.864258 1315.01758,114.240234 1315.01758,116.982422 C1315.01758,119.912109 1315.78516,122.258789 1317.32031,124.022461 C1318.85547,125.786133 1320.67188,126.667969 1322.76953,126.667969 Z M1323.75391,123.908203 C1321.86719,123.908203 1320.49609,123.228516 1319.64062,121.869141 C1318.78516,120.509766 1318.35742,118.822266 1318.35742,116.806641 C1318.35742,114.439453 1318.85254,112.646484 1319.84277,111.427734 C1320.83301,110.208984 1322.125,109.599609 1323.71875,109.599609 C1325.14844,109.599609 1326.34961,110.170898 1327.32227,111.313477 C1328.29492,112.456055 1328.78125,114.216797 1328.78125,116.595703 C1328.78125,118.951172 1328.30957,120.758789 1327.36621,122.018555 C1326.42285,123.27832 1325.21875,123.908203 1323.75391,123.908203 Z M1339.5918,103.763672 L1339.5918,100.177734 L1336.375,100.177734 L1336.375,103.763672 L1339.5918,103.763672 Z M1339.5918,126 L1339.5918,107.261719 L1336.375,107.261719 L1336.375,126 L1339.5918,126 Z M1351.54492,126.685547 C1354.65039,126.685547 1356.94141,125.695312 1358.41797,123.714844 C1359.89453,121.734375 1360.63281,119.226562 1360.63281,116.191406 C1360.63281,113.050781 1359.79492,110.671875 1358.11914,109.054688 C1356.44336,107.4375 1354.39258,106.628906 1351.9668,106.628906 C1349.25977,106.628906 1347.10352,107.566406 1345.49805,109.441406 C1343.89258,111.316406 1343.08984,113.835938 1343.08984,117 C1343.08984,119.953125 1343.85156,122.305664 1345.375,124.057617 C1346.89844,125.80957 1348.95508,126.685547 1351.54492,126.685547 Z M1351.84375,123.960938 C1349.93359,123.960938 1348.53906,123.292969 1347.66016,121.957031 C1346.78125,120.621094 1346.3418,118.951172 1346.3418,116.947266 C1346.3418,114.861328 1346.78125,113.080078 1347.66016,111.603516 C1348.53906,110.126953 1349.94531,109.388672 1351.87891,109.388672 C1354.05859,109.388672 1355.59375,110.255859 1356.48438,111.990234 C1357.04688,113.091797 1357.32812,114.521484 1357.32812,116.279297 C1357.32812,118.224609 1356.93848,119.991211 1356.15918,121.579102 C1355.37988,123.166992 1353.94141,123.960938 1351.84375,123.960938 Z M1378.31641,126 L1378.31641,109.757812 L1381.48047,109.757812 L1381.48047,107.261719 L1378.35156,107.261719 C1378.35156,105.222656 1378.44531,103.954102 1378.63281,103.456055 C1378.82031,102.958008 1379.39453,102.708984 1380.35547,102.708984 C1380.48438,102.708984 1380.62207,102.711914 1380.76855,102.717773 C1380.91504,102.723633 1381.15234,102.738281 1381.48047,102.761719 L1381.48047,102.761719 L1381.48047,99.8789062 C1381.21094,99.8554688 1380.9707,99.8378906 1380.75977,99.8261719 C1380.54883,99.8144531 1380.34375,99.8085938 1380.14453,99.8085938 C1378.03516,99.8085938 1376.61133,100.347656 1375.87305,101.425781 C1375.46289,102.035156 1375.23438,102.996094 1375.1875,104.308594 L1375.1875,104.308594 L1375.1875,107.261719 L1372.56836,107.261719 L1372.56836,109.757812 L1375.1875,109.757812 L1375.1875,126 L1378.31641,126 Z M1387.68555,103.763672 L1387.68555,100.177734 L1384.52148,100.177734 L1384.52148,103.763672 L1387.68555,103.763672 Z M1387.68555,126 L1387.68555,107.261719 L1384.52148,107.261719 L1384.52148,126 L1387.68555,126 Z M1395.64844,126 L1395.64844,100.177734 L1392.48438,100.177734 L1392.48438,126 L1395.64844,126 Z M1407.74219,126.667969 C1408.70312,126.667969 1409.56445,126.574219 1410.32617,126.386719 C1411.74414,126.058594 1412.93359,125.425781 1413.89453,124.488281 C1414.46875,123.949219 1414.9873,123.254883 1415.4502,122.405273 C1415.91309,121.555664 1416.18555,120.785156 1416.26758,120.09375 L1416.26758,120.09375 L1413.15625,120.09375 C1412.92188,120.925781 1412.52344,121.658203 1411.96094,122.291016 C1410.97656,123.380859 1409.6582,123.925781 1408.00586,123.925781 C1406.23633,123.925781 1404.92969,123.348633 1404.08594,122.194336 C1403.24219,121.040039 1402.79102,119.507812 1402.73242,117.597656 L1402.73242,117.597656 L1416.53125,117.597656 C1416.53125,115.699219 1416.4375,114.316406 1416.25,113.449219 C1416.03906,112.183594 1415.61719,111.076172 1414.98438,110.126953 C1414.32812,109.130859 1413.37305,108.319336 1412.11914,107.692383 C1410.86523,107.06543 1409.57031,106.751953 1408.23438,106.751953 C1405.58594,106.751953 1403.44141,107.695312 1401.80078,109.582031 C1400.16016,111.46875 1399.33984,113.923828 1399.33984,116.947266 C1399.33984,120.017578 1400.1543,122.405273 1401.7832,124.110352 C1403.41211,125.81543 1405.39844,126.667969 1407.74219,126.667969 Z M1413.2793,115.083984 L1402.82031,115.083984 C1402.87891,113.466797 1403.40039,112.133789 1404.38477,111.084961 C1405.36914,110.036133 1406.58789,109.511719 1408.04102,109.511719 C1410.06836,109.511719 1411.51562,110.273438 1412.38281,111.796875 C1412.85156,112.617188 1413.15039,113.712891 1413.2793,115.083984 L1413.2793,115.083984 Z M1437.2207,126.544922 C1439.41211,126.544922 1441.21094,125.967773 1442.61719,124.813477 C1444.02344,123.65918 1444.90234,121.833984 1445.25391,119.337891 L1445.25391,119.337891 L1442.17773,119.337891 C1441.88477,120.732422 1441.35449,121.831055 1440.58691,122.633789 C1439.81934,123.436523 1438.7793,123.837891 1437.4668,123.837891 C1435.75586,123.837891 1434.50195,123.193359 1433.70508,121.904297 C1432.9082,120.615234 1432.50977,119.027344 1432.50977,117.140625 C1432.50977,115.265625 1432.79102,113.689453 1433.35352,112.412109 C1434.2207,110.443359 1435.66211,109.458984 1437.67773,109.458984 C1439.1543,109.458984 1440.22656,109.842773 1440.89453,110.610352 C1441.5625,111.37793 1441.99023,112.341797 1442.17773,113.501953 L1442.17773,113.501953 L1445.25391,113.501953 C1444.98438,110.982422 1444.18457,109.207031 1442.85449,108.175781 C1441.52441,107.144531 1439.79883,106.628906 1437.67773,106.628906 C1435.19336,106.628906 1433.14844,107.548828 1431.54297,109.388672 C1429.9375,111.228516 1429.13477,113.800781 1429.13477,117.105469 C1429.13477,119.800781 1429.86719,122.047852 1431.33203,123.84668 C1432.79688,125.645508 1434.75977,126.544922 1437.2207,126.544922 Z M1455.58984,126.685547 C1458.69531,126.685547 1460.98633,125.695312 1462.46289,123.714844 C1463.93945,121.734375 1464.67773,119.226562 1464.67773,116.191406 C1464.67773,113.050781 1463.83984,110.671875 1462.16406,109.054688 C1460.48828,107.4375 1458.4375,106.628906 1456.01172,106.628906 C1453.30469,106.628906 1451.14844,107.566406 1449.54297,109.441406 C1447.9375,111.316406 1447.13477,113.835938 1447.13477,117 C1447.13477,119.953125 1447.89648,122.305664 1449.41992,124.057617 C1450.94336,125.80957 1453,126.685547 1455.58984,126.685547 Z M1455.88867,123.960938 C1453.97852,123.960938 1452.58398,123.292969 1451.70508,121.957031 C1450.82617,120.621094 1450.38672,118.951172 1450.38672,116.947266 C1450.38672,114.861328 1450.82617,113.080078 1451.70508,111.603516 C1452.58398,110.126953 1453.99023,109.388672 1455.92383,109.388672 C1458.10352,109.388672 1459.63867,110.255859 1460.5293,111.990234 C1461.0918,113.091797 1461.37305,114.521484 1461.37305,116.279297 C1461.37305,118.224609 1460.9834,119.991211 1460.2041,121.579102 C1459.4248,123.166992 1457.98633,123.960938 1455.88867,123.960938 Z M1471.60352,126 L1471.60352,116.138672 C1471.60352,114.908203 1471.68262,113.961914 1471.84082,113.299805 C1471.99902,112.637695 1472.3418,111.996094 1472.86914,111.375 C1473.52539,110.601562 1474.28711,110.085938 1475.1543,109.828125 C1475.63477,109.675781 1476.25,109.599609 1477,109.599609 C1478.47656,109.599609 1479.49609,110.185547 1480.05859,111.357422 C1480.39844,112.060547 1480.56836,112.986328 1480.56836,114.134766 L1480.56836,114.134766 L1480.56836,126 L1483.78516,126 L1483.78516,113.923828 C1483.78516,112.025391 1483.52734,110.566406 1483.01172,109.546875 C1482.07422,107.683594 1480.26953,106.751953 1477.59766,106.751953 C1476.37891,106.751953 1475.27148,106.992188 1474.27539,107.472656 C1473.2793,107.953125 1472.33594,108.744141 1471.44531,109.845703 L1471.44531,109.845703 L1471.44531,107.173828 L1468.43945,107.173828 L1468.43945,126 L1471.60352,126 Z M1496.65234,126 L1503.75391,107.173828 L1500.29102,107.173828 L1495.03516,122.501953 L1490.00781,107.173828 L1486.33398,107.173828 L1493.27734,126 L1496.65234,126 Z M1513.80859,126.667969 C1514.76953,126.667969 1515.63086,126.574219 1516.39258,126.386719 C1517.81055,126.058594 1519,125.425781 1519.96094,124.488281 C1520.53516,123.949219 1521.05371,123.254883 1521.5166,122.405273 C1521.97949,121.555664 1522.25195,120.785156 1522.33398,120.09375 L1522.33398,120.09375 L1519.22266,120.09375 C1518.98828,120.925781 1518.58984,121.658203 1518.02734,122.291016 C1517.04297,123.380859 1515.72461,123.925781 1514.07227,123.925781 C1512.30273,123.925781 1510.99609,123.348633 1510.15234,122.194336 C1509.30859,121.040039 1508.85742,119.507812 1508.79883,117.597656 L1508.79883,117.597656 L1522.59766,117.597656 C1522.59766,115.699219 1522.50391,114.316406 1522.31641,113.449219 C1522.10547,112.183594 1521.68359,111.076172 1521.05078,110.126953 C1520.39453,109.130859 1519.43945,108.319336 1518.18555,107.692383 C1516.93164,107.06543 1515.63672,106.751953 1514.30078,106.751953 C1511.65234,106.751953 1509.50781,107.695312 1507.86719,109.582031 C1506.22656,111.46875 1505.40625,113.923828 1505.40625,116.947266 C1505.40625,120.017578 1506.2207,122.405273 1507.84961,124.110352 C1509.47852,125.81543 1511.46484,126.667969 1513.80859,126.667969 Z M1519.3457,115.083984 L1508.88672,115.083984 C1508.94531,113.466797 1509.4668,112.133789 1510.45117,111.084961 C1511.43555,110.036133 1512.6543,109.511719 1514.10742,109.511719 C1516.13477,109.511719 1517.58203,110.273438 1518.44922,111.796875 C1518.91797,112.617188 1519.2168,113.712891 1519.3457,115.083984 L1519.3457,115.083984 Z M1529.73438,126 L1529.73438,115.171875 C1529.73438,113.835938 1530.16211,112.655273 1531.01758,111.629883 C1531.87305,110.604492 1533.09766,110.091797 1534.69141,110.091797 C1534.87891,110.091797 1535.05176,110.097656 1535.20996,110.109375 C1535.36816,110.121094 1535.54102,110.144531 1535.72852,110.179688 L1535.72852,110.179688 L1535.72852,106.839844 C1535.38867,106.804688 1535.14844,106.78125 1535.00781,106.769531 C1534.86719,106.757812 1534.76758,106.751953 1534.70898,106.751953 C1533.45508,106.751953 1532.34766,107.206055 1531.38672,108.114258 C1530.42578,109.022461 1529.82227,109.792969 1529.57617,110.425781 L1529.57617,110.425781 L1529.57617,107.173828 L1526.57031,107.173828 L1526.57031,126 L1529.73438,126 Z M1542.90039,126.298828 C1543.35742,126.298828 1543.78223,126.275391 1544.1748,126.228516 C1544.56738,126.181641 1544.94531,126.105469 1545.30859,126 L1545.30859,126 L1545.30859,123.503906 C1545.07422,123.527344 1544.86914,123.541992 1544.69336,123.547852 C1544.51758,123.553711 1544.35352,123.556641 1544.20117,123.556641 C1543.62695,123.556641 1543.2168,123.492188 1542.9707,123.363281 C1542.52539,123.140625 1542.30273,122.701172 1542.30273,122.044922 L1542.30273,122.044922 L1542.30273,109.757812 L1545.30859,109.757812 L1545.30859,107.173828 L1542.30273,107.173828 L1542.30273,101.917969 L1539.10352,101.917969 L1539.10352,107.173828 L1536.55469,107.173828 L1536.55469,109.757812 L1539.10352,109.757812 L1539.10352,122.220703 C1539.10352,123.427734 1539.36719,124.40918 1539.89453,125.165039 C1540.42188,125.920898 1541.42383,126.298828 1542.90039,126.298828 Z M1555.82031,126.667969 C1556.78125,126.667969 1557.64258,126.574219 1558.4043,126.386719 C1559.82227,126.058594 1561.01172,125.425781 1561.97266,124.488281 C1562.54688,123.949219 1563.06543,123.254883 1563.52832,122.405273 C1563.99121,121.555664 1564.26367,120.785156 1564.3457,120.09375 L1564.3457,120.09375 L1561.23438,120.09375 C1561,120.925781 1560.60156,121.658203 1560.03906,122.291016 C1559.05469,123.380859 1557.73633,123.925781 1556.08398,123.925781 C1554.31445,123.925781 1553.00781,123.348633 1552.16406,122.194336 C1551.32031,121.040039 1550.86914,119.507812 1550.81055,117.597656 L1550.81055,117.597656 L1564.60938,117.597656 C1564.60938,115.699219 1564.51562,114.316406 1564.32812,113.449219 C1564.11719,112.183594 1563.69531,111.076172 1563.0625,110.126953 C1562.40625,109.130859 1561.45117,108.319336 1560.19727,107.692383 C1558.94336,107.06543 1557.64844,106.751953 1556.3125,106.751953 C1553.66406,106.751953 1551.51953,107.695312 1549.87891,109.582031 C1548.23828,111.46875 1547.41797,113.923828 1547.41797,116.947266 C1547.41797,120.017578 1548.23242,122.405273 1549.86133,124.110352 C1551.49023,125.81543 1553.47656,126.667969 1555.82031,126.667969 Z M1561.35742,115.083984 L1550.89844,115.083984 C1550.95703,113.466797 1551.47852,112.133789 1552.46289,111.084961 C1553.44727,110.036133 1554.66602,109.511719 1556.11914,109.511719 C1558.14648,109.511719 1559.59375,110.273438 1560.46094,111.796875 C1560.92969,112.617188 1561.22852,113.712891 1561.35742,115.083984 L1561.35742,115.083984 Z M1571.74609,126 L1571.74609,115.171875 C1571.74609,113.835938 1572.17383,112.655273 1573.0293,111.629883 C1573.88477,110.604492 1575.10938,110.091797 1576.70312,110.091797 C1576.89062,110.091797 1577.06348,110.097656 1577.22168,110.109375 C1577.37988,110.121094 1577.55273,110.144531 1577.74023,110.179688 L1577.74023,110.179688 L1577.74023,106.839844 C1577.40039,106.804688 1577.16016,106.78125 1577.01953,106.769531 C1576.87891,106.757812 1576.7793,106.751953 1576.7207,106.751953 C1575.4668,106.751953 1574.35938,107.206055 1573.39844,108.114258 C1572.4375,109.022461 1571.83398,109.792969 1571.58789,110.425781 L1571.58789,110.425781 L1571.58789,107.173828 L1568.58203,107.173828 L1568.58203,126 L1571.74609,126 Z" id="Audiofileconverter" fill="#F4F4F5" fill-rule="nonzero"></path>
        </g>
    </g>
</svg>